<svg width="27" height="25" viewBox="0 0 27 25" fill="none" xmlns="http://www.w3.org/2000/svg">
<path d="M12.0791 0.625093C6.13745 1.25009 1.35828 5.87509 0.712451 11.5001C0.0666173 17.3751 3.55412 22.6251 8.84995 24.6251C9.23745 24.7501 9.62495 24.5001 9.62495 24.0001V22.0001C9.62495 22.0001 9.10828 22.1251 8.46245 22.1251C6.65412 22.1251 5.87912 20.6251 5.74995 19.7501C5.62078 19.2501 5.36245 18.8751 4.97495 18.5001C4.58745 18.3751 4.45828 18.3751 4.45828 18.2501C4.45828 18.0001 4.84578 18.0001 4.97495 18.0001C5.74995 18.0001 6.39578 18.8751 6.65412 19.2501C7.29995 20.2501 8.07495 20.5001 8.46245 20.5001C8.97912 20.5001 9.36662 20.3751 9.62495 20.2501C9.75412 19.3751 10.1416 18.5001 10.9166 18.0001C7.94578 17.3751 5.74995 15.7501 5.74995 13.0001C5.74995 11.6251 6.39578 10.2501 7.29995 9.25009C7.17078 9.00009 7.04162 8.37509 7.04162 7.50009C7.04162 7.00009 7.04162 6.25009 7.42912 5.50009C7.42912 5.50009 9.23745 5.50009 11.0458 7.12509C11.6916 6.87509 12.5958 6.75009 13.5 6.75009C14.4041 6.75009 15.3083 6.87509 16.0833 7.12509C17.7625 5.50009 19.7 5.50009 19.7 5.50009C19.9583 6.25009 19.9583 7.00009 19.9583 7.50009C19.9583 8.50009 19.8291 9.00009 19.7 9.25009C20.6041 10.2501 21.25 11.5001 21.25 13.0001C21.25 15.7501 19.0541 17.3751 16.0833 18.0001C16.8583 18.6251 17.375 19.7501 17.375 20.8751V24.1251C17.375 24.5001 17.7625 24.8751 18.2791 24.7501C23.0583 22.8751 26.4166 18.3751 26.4166 13.1251C26.4166 5.62509 19.8291 -0.249907 12.0791 0.625093Z" fill="#F4F0BB"/>
</svg>
