<svg width="53" height="53" viewBox="0 0 53 53" fill="none" xmlns="http://www.w3.org/2000/svg">
<path d="M44.1667 24.2917C43.581 24.2917 43.0193 24.5243 42.6051 24.9385C42.191 25.3526 41.9583 25.9143 41.9583 26.5V39.75C41.9583 40.3357 41.7257 40.8974 41.3115 41.3115C40.8974 41.7257 40.3357 41.9583 39.75 41.9583H13.25C12.6643 41.9583 12.1026 41.7257 11.6885 41.3115C11.2743 40.8974 11.0417 40.3357 11.0417 39.75V13.25C11.0417 12.6643 11.2743 12.1026 11.6885 11.6885C12.1026 11.2743 12.6643 11.0417 13.25 11.0417H26.5C27.0857 11.0417 27.6474 10.809 28.0615 10.3949C28.4757 9.98072 28.7083 9.41902 28.7083 8.83333C28.7083 8.24765 28.4757 7.68595 28.0615 7.27181C27.6474 6.85766 27.0857 6.625 26.5 6.625H13.25C11.4929 6.625 9.80785 7.32299 8.56542 8.56542C7.32299 9.80785 6.625 11.4929 6.625 13.25V39.75C6.625 41.5071 7.32299 43.1922 8.56542 44.4346C9.80785 45.677 11.4929 46.375 13.25 46.375H39.75C41.5071 46.375 43.1922 45.677 44.4346 44.4346C45.677 43.1922 46.375 41.5071 46.375 39.75V26.5C46.375 25.9143 46.1423 25.3526 45.7282 24.9385C45.3141 24.5243 44.7524 24.2917 44.1667 24.2917Z" fill="#F4F0BB"/>
<path d="M35.3333 11.0417H38.8225L24.9321 24.91C24.7251 25.1153 24.5608 25.3595 24.4487 25.6286C24.3366 25.8977 24.2789 26.1864 24.2789 26.4779C24.2789 26.7694 24.3366 27.0581 24.4487 27.3272C24.5608 27.5963 24.7251 27.8405 24.9321 28.0458C25.1374 28.2528 25.3816 28.4171 25.6507 28.5292C25.9198 28.6413 26.2085 28.6991 26.5 28.6991C26.7915 28.6991 27.0802 28.6413 27.3493 28.5292C27.6184 28.4171 27.8626 28.2528 28.0679 28.0458L41.9583 14.1775V17.6667C41.9583 18.2524 42.191 18.8141 42.6051 19.2282C43.0193 19.6423 43.581 19.875 44.1667 19.875C44.7524 19.875 45.3141 19.6423 45.7282 19.2282C46.1423 18.8141 46.375 18.2524 46.375 17.6667V8.83333C46.375 8.24765 46.1423 7.68595 45.7282 7.27181C45.3141 6.85766 44.7524 6.625 44.1667 6.625H35.3333C34.7477 6.625 34.186 6.85766 33.7718 7.27181C33.3577 7.68595 33.125 8.24765 33.125 8.83333C33.125 9.41902 33.3577 9.98072 33.7718 10.3949C34.186 10.809 34.7477 11.0417 35.3333 11.0417V11.0417Z" fill="#F4F0BB"/>
</svg>
