<svg width="31" height="27" viewBox="0 0 31 27" fill="none" xmlns="http://www.w3.org/2000/svg">
<path d="M0.178589 8.10135L15.0181 15.8192C15.1669 15.8966 15.3322 15.937 15.5 15.937C15.6678 15.937 15.8331 15.8966 15.9819 15.8192L30.8214 8.10275V21.509C30.8215 22.6653 30.3791 23.7777 29.585 24.6182C28.791 25.4586 27.7054 25.9634 26.5509 26.0288L26.2947 26.0358H4.70537C3.54911 26.0359 2.43665 25.5935 1.5962 24.7994C0.755743 24.0053 0.251016 22.9197 0.185553 21.7653L0.178589 21.509V8.10135ZM4.70537 0.964355H26.2947C27.4509 0.96428 28.5634 1.40666 29.4038 2.20076C30.2443 2.99485 30.749 4.08045 30.8145 5.23486L30.8214 5.49114V5.74743L15.5 13.7146L0.178589 5.74743V5.49114C0.178513 4.33488 0.620896 3.22242 1.41499 2.38196C2.20908 1.54151 3.29468 1.03678 4.44909 0.97132L4.70537 0.964355H26.2947H4.70537Z" fill="#F4F0BB"/>
</svg>
